<svg xmlns="http://www.w3.org/2000/svg" width="23.14" height="30.72" viewBox="0 0 23.14 30.72">
	<style type="text/css">
		.st0{fill:#2ebaee;fill-rule:evenodd;}
	</style>
	<path class="st0" d="M8.78,26.91C8.51,26.91 8.3,26.69 8.3,26.43C8.3,26.16 8.51,25.95 8.78,25.95L14.36,25.95C14.62,25.95 14.84,26.16 14.84,26.43C14.84,26.69 14.62,26.91 14.36,26.91Z"/>
	<path class="st0" d="M9.4,28.81C9.13,28.81 8.92,28.59 8.92,28.33C8.92,28.07 9.13,27.85 9.4,27.85L13.74,27.85C14,27.85 14.22,28.07 14.22,28.33C14.22,28.59 14,28.81 13.74,28.81Z"/>
	<path class="st0" d="M11.11,22.18C11.11,22.44 10.9,22.65 10.64,22.65C10.37,22.65 10.16,22.44 10.16,22.18C10.16,20.15 10.1,18.64 9.82,17.25C9.54,15.86 9.05,14.58 8.17,13C8.04,12.77 8.13,12.48 8.36,12.35C8.59,12.22 8.88,12.31 9.01,12.54C9.94,14.22 10.47,15.58 10.76,17.06C11.05,18.52 11.11,20.08 11.11,22.18"/>
	<path class="st0" d="M12.97,22.18C12.97,22.44 12.76,22.65 12.5,22.65C12.23,22.65 12.02,22.44 12.02,22.18C12.02,20.08 12.08,18.52 12.37,17.06C12.67,15.58 13.19,14.22 14.12,12.54C14.25,12.31 14.54,12.22 14.77,12.35C15,12.48 15.09,12.77 14.96,13C14.08,14.58 13.59,15.86 13.31,17.25C13.03,18.64 12.98,20.15 12.97,22.18"/>
	<path class="st0" d="M8.44,13.23C8.19,13.14 8.05,12.88 8.13,12.62C8.21,12.37 8.48,12.23 8.74,12.31C9.07,12.42 9.36,12.57 9.63,12.7L9.65,12.72C10.07,12.92 10.42,13.09 10.67,12.88L11.26,12.4C11.47,12.23 11.77,12.26 11.94,12.47C12.1,12.67 12.07,12.97 11.87,13.14L11.28,13.62C10.54,14.22 9.94,13.93 9.22,13.57L9.2,13.56C8.96,13.44 8.71,13.31 8.44,13.23"/>
	<path class="st0" d="M12.05,2.33C12.05,2.6 11.83,2.81 11.57,2.81C11.3,2.81 11.09,2.6 11.09,2.33L11.09,0.47C11.09,0.21 11.3,0 11.57,0C11.83,0 12.05,0.21 12.05,0.47Z"/>
	<path class="st0" d="M14.4,12.31C14.65,12.23 14.92,12.37 15,12.62C15.08,12.87 14.94,13.14 14.69,13.23C14.42,13.31 14.17,13.44 13.94,13.56L13.92,13.57C13.19,13.93 12.59,14.22 11.85,13.62L11.26,13.14C11.06,12.97 11.03,12.67 11.19,12.47C11.36,12.26 11.66,12.23 11.87,12.4L12.46,12.88C12.72,13.09 13.06,12.92 13.48,12.71L13.51,12.7C13.77,12.57 14.06,12.42 14.4,12.31"/>
	<path class="st0" d="M19.15,13.5C19.15,11.4 18.3,9.51 16.93,8.13C16.22,7.43 15.39,6.87 14.47,6.49C13.58,6.12 12.6,5.92 11.57,5.92C10.54,5.92 9.56,6.12 8.67,6.49L8.67,6.49L8.67,6.49C7.74,6.87 6.91,7.43 6.21,8.13C5.51,8.83 4.95,9.66 4.57,10.57L4.56,10.6C4.19,11.49 3.99,12.47 3.99,13.5C3.99,14.32 4.12,15.11 4.36,15.85C4.61,16.61 4.98,17.33 5.44,17.96C6.31,19.15 7.01,19.92 7.56,20.52L7.56,20.53C8.63,21.69 9.16,22.27 9.24,23.86L11.59,23.86L13.93,23.86C14.01,22.27 14.53,21.69 15.6,20.5C16.14,19.91 16.83,19.14 17.69,17.96C18.16,17.33 18.53,16.61 18.78,15.85C19.02,15.11 19.15,14.32 19.15,13.5M17.61,7.46C19.15,9 20.11,11.14 20.11,13.5C20.11,14.42 19.96,15.31 19.69,16.14C19.41,17.01 18.99,17.81 18.46,18.53C17.58,19.73 16.87,20.53 16.31,21.14C15.31,22.25 14.88,22.73 14.88,24.35C14.88,24.61 14.66,24.83 14.4,24.83L14.38,24.83L11.59,24.83L8.78,24.83C8.51,24.83 8.3,24.61 8.3,24.35C8.3,22.75 7.85,22.26 6.86,21.17L6.86,21.17L6.85,21.17C6.29,20.55 5.57,19.76 4.67,18.53C4.14,17.81 3.73,17.01 3.45,16.14C3.17,15.31 3.03,14.42 3.03,13.5C3.03,12.34 3.26,11.24 3.67,10.23L3.68,10.21C4.12,9.17 4.75,8.23 5.53,7.46C6.31,6.67 7.25,6.04 8.3,5.6L8.3,5.6C9.31,5.18 10.41,4.96 11.57,4.96C12.72,4.96 13.82,5.18 14.83,5.6C15.88,6.04 16.82,6.67 17.61,7.46"/>
	<path class="st0" d="M17.45,4.04C17.32,4.27 17.03,4.35 16.8,4.22C16.57,4.08 16.5,3.79 16.63,3.56L17.56,1.95C17.69,1.72 17.98,1.65 18.21,1.78C18.44,1.91 18.52,2.2 18.39,2.43Z"/>
	<path class="st0" d="M6.51,3.56C6.64,3.79 6.56,4.09 6.33,4.22C6.1,4.35 5.81,4.27 5.68,4.04L4.75,2.43C4.62,2.2 4.69,1.91 4.92,1.78C5.15,1.65 5.44,1.72 5.58,1.95Z"/>
	<path class="st0" d="M2.32,7.4C2.55,7.53 2.63,7.82 2.5,8.05C2.37,8.28 2.07,8.36 1.85,8.22L0.24,7.29C0.01,7.16 -0.06,6.87 0.06,6.64C0.19,6.41 0.48,6.33 0.71,6.47Z"/>
	<path class="st0" d="M21.29,8.22C21.06,8.35 20.77,8.28 20.63,8.05C20.5,7.82 20.58,7.53 20.81,7.4L22.42,6.47C22.65,6.33 22.94,6.41 23.07,6.64C23.2,6.87 23.13,7.16 22.9,7.29Z"/>
	<path class="st0" d="M6.58,11.18C6.48,11.42 6.2,11.53 5.95,11.43C5.71,11.33 5.6,11.05 5.7,10.81C5.86,10.42 6.06,10.06 6.28,9.73L6.28,9.73L6.28,9.73C6.51,9.38 6.78,9.07 7.06,8.78C7.34,8.5 7.66,8.23 8.01,8C8.34,7.78 8.7,7.58 9.09,7.42C9.47,7.25 9.88,7.13 10.3,7.04C10.72,6.96 11.14,6.91 11.57,6.91C11.83,6.91 12.05,7.13 12.05,7.39C12.05,7.66 11.83,7.87 11.57,7.87C11.19,7.87 10.83,7.91 10.49,7.98C10.13,8.05 9.78,8.16 9.46,8.3C9.14,8.43 8.84,8.6 8.55,8.79L8.54,8.79C8.26,8.99 7.99,9.21 7.74,9.46C7.49,9.71 7.27,9.98 7.08,10.26L7.08,10.26C6.88,10.55 6.71,10.86 6.58,11.18"/>
</svg>