<svg xmlns="http://www.w3.org/2000/svg" width="78.33" height="74.75" viewBox="0 0 78.33 74.75">
	<style type="text/css">
		.st0{stroke:#2ebaee;fill:none;stroke-width:3;}
	</style>
	<path class="st0" d="M76.83,42.33C76.83,43.98 75.48,45.33 73.83,45.33L4.5,45.33C2.84,45.33 1.5,43.98 1.5,42.33L1.5,4.49C1.5,2.84 2.84,1.49 4.5,1.49L73.83,1.49C75.48,1.49 76.83,2.84 76.83,4.49L76.83,42.33Z"/>
	<path class="st0" d="M1.5,49.83L76.83,49.83"/>
	<path class="st0" d="M39.16,50.46L39.16,68.16"/>
	<path class="st0" d="M38.71,50.01L15.03,73.69"/>
	<path class="st0" d="M39.16,50.01L62.85,73.69"/>
	<path class="st0" d="M1.5,37.16L12.47,37.16L24.69,24.94L32.34,32.6L49.62,15.31L60.52,26.22L66.74,20L76.83,20"/>
</svg>