<svg xmlns="http://www.w3.org/2000/svg" width="47.33" height="73.28" viewBox="0 0 47.33 73.28">
	<style type="text/css">
		.st1{stroke:#2ebaee;fill:none;stroke-width:2;}
		.st0{stroke:#2ebaee;fill:none;stroke-width:3;}
	</style>
	<path class="st0" d="M1.5,33.14L1.5,49.62C1.5,61.86 11.42,71.78 23.66,71.78C35.9,71.78 45.83,61.86 45.83,49.62L45.83,33.14L1.5,33.14Z"/>
	<path class="st0" d="M39.52,33.14L39.52,17.35C39.52,8.59 32.42,1.49 23.66,1.49C14.9,1.49 7.8,8.59 7.8,17.35L7.8,33.14L39.52,33.14Z"/>
	<path class="st0" d="M33.44,27.08L33.44,17.34C33.44,11.93 29.06,7.56 23.66,7.56C18.26,7.56 13.88,11.93 13.88,17.34L13.88,27.08L33.44,27.08Z"/>
	<path class="st1" d="M28.05,42.28L19.27,42.28C18.02,42.28 17.51,43.17 18.13,44.25L21.25,49.65C19.81,50.48 18.84,52.03 18.84,53.82C18.84,56.48 21,58.63 23.66,58.63C26.32,58.63 28.48,56.48 28.48,53.82C28.48,52.03 27.51,50.48 26.07,49.65L29.19,44.25C29.81,43.17 29.3,42.28 28.05,42.28Z"/>
	<path class="st1" d="M8.02,38.83L8.02,50.45C8.02,59.09 15.02,66.09 23.66,66.09"/>
</svg>