<svg xmlns="http://www.w3.org/2000/svg" width="75.25" height="72.33" viewBox="0 0 75.25 72.33">
	<style type="text/css">
		.st1{stroke:#2ebaee;fill:none;stroke-width:2;}
		.st0{stroke:#2ebaee;fill:none;stroke-width:3;}
	</style>
	<path class="st0" d="M73.75,67.83C73.75,69.48 72.4,70.83 70.75,70.83L4.49,70.83C2.85,70.83 1.5,69.48 1.5,67.83L1.5,4.49C1.5,2.85 2.85,1.49 4.49,1.49L70.75,1.49C72.4,1.49 73.75,2.85 73.75,4.49L73.75,67.83Z"/>
	<path class="st0" d="M1.79,16.16L73.75,16.16"/>
	<path class="st1" d="M13.46,8.99C13.46,10.7 12.07,12.09 10.36,12.09C8.65,12.09 7.26,10.7 7.26,8.99C7.26,7.28 8.65,5.9 10.36,5.9C12.07,5.9 13.46,7.28 13.46,8.99Z"/>
	<path class="st1" d="M23.75,8.99C23.75,10.7 22.37,12.09 20.66,12.09C18.95,12.09 17.56,10.7 17.56,8.99C17.56,7.28 18.95,5.9 20.66,5.9C22.37,5.9 23.75,7.28 23.75,8.99Z"/>
	<path class="st1" d="M34.05,8.99C34.05,10.7 32.67,12.09 30.96,12.09C29.24,12.09 27.86,10.7 27.86,8.99C27.86,7.28 29.24,5.9 30.96,5.9C32.67,5.9 34.05,7.28 34.05,8.99Z"/>
	<path class="st1" d="M66.48,42.46C66.48,44.15 65.13,45.52 63.47,45.52C61.8,45.52 60.45,44.15 60.45,42.46C60.45,40.77 61.8,39.4 63.47,39.4C65.13,39.4 66.48,40.77 66.48,42.46Z"/>
	<path class="st1" d="M66.48,61.99C66.48,63.68 65.13,65.06 63.47,65.06C61.8,65.06 60.45,63.68 60.45,61.99C60.45,60.3 61.8,58.93 63.47,58.93C65.13,58.93 66.48,60.3 66.48,61.99Z"/>
	<path class="st1" d="M66.46,52.59C66.27,54.27 64.77,55.47 63.12,55.29C61.47,55.1 60.28,53.58 60.47,51.9C60.66,50.22 62.16,49.02 63.81,49.2C65.47,49.39 66.65,50.9 66.46,52.59Z"/>
	<path class="st0" d="M1.5,33.83L74.29,33.83"/>
	<path class="st0" d="M53.46,33.83L53.46,71.16"/>
	<path class="st1" d="M11.36,42.49L43.62,42.49"/>
	<path class="st1" d="M11.36,25.5L64.62,25.5"/>
	<path class="st1" d="M11.36,52.24L43.62,52.24"/>
	<path class="st1" d="M11.36,61.99L43.62,61.99"/>
</svg>